:version 1.10
:name ASF
:units
  mass 1
  length 1
  angle deg
:documentation
  ASF file generated by Kaydara
:root
  axis xyz
  order  tx ty tz rx ry rz
  position 0 0 0
  orientation 0 0 0
:bonedata
  begin
    id 1
    name RightUpLegDummy
    direction -1 2.30186e-007 8.31532e-007
    length 4.04083
    axis 0 0 0 xyz
  end
  begin
    id 2
    name RightUpLeg
    direction -0.000919234 -0.999985 0.00544864
    length 17.4221
    axis -3.80308 -0.00076134 -0.0523649 xyz
    dof rx ry rz
  end
  begin
    id 3
    name RightLeg
    direction -0.000919271 -0.999984 -0.00555045
    length 17.1239
    axis 4.00314 0.0181274 -0.183583 xyz
    dof rx ry rz
  end
  begin
    id 4
    name RightFoot
    direction -2.57843e-005 -4.04509e-007 1
    length 6.72091
    axis 8.18909e-005 -0.122003 -0.403008 xyz
    dof rx ry rz
  end
  begin
    id 5
    name RightToes
    direction 0.00116825 -0.014069 0.9999
    length 3.85082
    axis 0.000514414 0.540638 -0.356797 xyz
    dof rx ry rz
  end
  begin
    id 6
    name SpineDummy
    direction 0.0168869 0.966876 -0.254689
    length 6.99894
    axis 0 0 0 xyz
  end
  begin
    id 7
    name Spine
    direction -0.0132008 0.999903 0.00446247
    length 11.1999
    axis -0.00148109 0.00725429 0.756411 xyz
    dof rx ry rz
  end
  begin
    id 8
    name Spine1
    direction 0 0 0
    length 0
    axis -0.000934958 0.0245693 1.46543 xyz
    dof rx ry rz
  end
  begin
    id 9
    name HEadDummy
    direction -0.0255732 0.999672 0.00128215
    length 3.43865
    axis -0.000934958 0.0245693 1.46543 xyz
  end
  begin
    id 10
    name HEad
    direction -0.0472656 0.980052 0.19304
    length 5.12695
    axis -0.000934954 0.0245693 1.46543 xyz
    dof rx ry rz
  end
  begin
    id 11
    name LeftShoulder1Dummy
    direction 0.953098 0.301717 -0.023914
    length 3.68488
    axis -0.000934958 0.0245693 1.46543 xyz
  end
  begin
    id 12
    name LeftShoulder1
    direction 0.962466 0.271167 0.0112566
    length 3.13809
    axis -0.000934958 0.0245693 1.46543 xyz
    dof rx ry rz
  end
  begin
    id 13
    name LeftArm
    direction 0.999943 0.00455037 -0.00961766
    length 11.3419
    axis -23.1648 0.685459 1.22814 xyz
    dof rx ry rz
  end
  begin
    id 14
    name LeftForeArm
    direction 0.999332 0.0131969 0.0340885
    length 8.70632
    axis -9.90633 0.618216 0.0826942 xyz
    dof rx ry rz
  end
  begin
    id 15
    name LeftHand
    direction 0.994373 -0.0366703 0.0993905
    length 5.32135
    axis 0.00675269 0.680415 0.445699 xyz
    dof rx ry rz
  end
  begin
    id 16
    name RightShoulderDummy
    direction -0.967298 0.252589 -0.0230903
    length 3.68488
    axis -0.000934958 0.0245693 1.46543 xyz
  end
  begin
    id 17
    name RightShoulder
    direction -0.975062 0.221602 0.0120823
    length 3.13809
    axis 0.216257 0.0246515 1.45863 xyz
    dof rx ry rz
  end
  begin
    id 18
    name RightArm
    direction -0.99886 -0.00851186 -0.0469687
    length 10.3947
    axis -23.196 0.23503 -0.532632 xyz
    dof rx ry rz
  end
  begin
    id 19
    name RightForeArm
    direction -0.99909 0.00114866 0.0426317
    length 8.68355
    axis -9.91764 -0.134943 0.610517 xyz
    dof rx ry rz
  end
  begin
    id 20
    name RightHand
    direction -0.992888 -0.0489538 0.10852
    length 5.28593
    axis -0.00275396 -0.197403 0.246414 xyz
    dof rx ry rz
  end
  begin
    id 21
    name LeftUpLegDummy
    direction 1 -2.30186e-007 -8.31532e-007
    length 4.04083
    axis 0 0 0 xyz
  end
  begin
    id 22
    name LeftUpLeg
    direction -0.000920097 -1 2.79241e-006
    length 17.4221
    axis -3.48782 0.00143434 -0.0532288 xyz
    dof rx ry rz
  end
  begin
    id 23
    name LeftLeg
    direction -0.000920097 -1 2.7912e-006
    length 17.1239
    axis 3.68162 -0.00806512 -0.0529896 xyz
    dof rx ry rz
  end
  begin
    id 24
    name LeftFoot
    direction -2.57845e-005 -3.987e-007 1
    length 6.72091
    axis 3.02372e-005 -0.00147829 -0.214229 xyz
    dof rx ry rz
  end
  begin
    id 25
    name LeftToes
    direction 0.00813577 -0.00488255 0.999955
    length 3.85048
    axis 3.89895e-005 -0.0014783 -0.214229 xyz
    dof rx ry rz
  end
:hierarchy
  begin
    root RightUpLegDummy SpineDummy LeftUpLegDummy
    RightUpLegDummy RightUpLeg
    RightUpLeg RightLeg
    RightLeg RightFoot
    RightFoot RightToes
    SpineDummy Spine
    Spine Spine1
    Spine1 HEadDummy LeftShoulder1Dummy RightShoulderDummy
    HEadDummy HEad
    LeftShoulder1Dummy LeftShoulder1
    LeftShoulder1 LeftArm
    LeftArm LeftForeArm
    LeftForeArm LeftHand
    RightShoulderDummy RightShoulder
    RightShoulder RightArm
    RightArm RightForeArm
    RightForeArm RightHand
    LeftUpLegDummy LeftUpLeg
    LeftUpLeg LeftLeg
    LeftLeg LeftFoot
    LeftFoot LeftToes
  end

:SAMPLES-PER-SECOND 30
:FULLY-SPECIFIED
:DEGREES
1
root  -41.7328 34.9292 11.8273 -169.836 59.8572 -179.519
RightUpLeg  -5.92131 -15.9326 -0.949226
RightLeg  0.584487 -1.24976 0.0819022
RightFoot  7.75763 0.0338178 -0.0141231
RightToes  -27.5356 -0.126169 -0.232039
Spine  -2.49608 -0.299117 0.272628
Spine1  -5.0166 -0.509103 1.21396
HEad  -75.0295 -8.8532 9.35497
LeftShoulder1  -1.94126e-019 -3.10601e-018 -2.51263e-017
LeftArm  -4.90835 19.2045 -82.4268
LeftForeArm  32.6636 -24.7924 -3.86459
LeftHand  -0.428952 -1.83866 7.07255
RightShoulder  -4.96962e-017 0 -2.36833e-017
RightArm  -20.0437 -19.2889 77.1624
RightForeArm  53.651 18.0293 1.3672
RightHand  -0.314597 -1.23986 -8.82383
LeftUpLeg  -6.02914 6.40672 1.77945
LeftLeg  1.43411 13.2636 -0.51614
LeftFoot  7.39028 -0.104463 1.89506
LeftToes  -23.6511 1.9075e-006 4.29692e-008
2
root  -41.7283 34.929 11.8294 -169.708 60.1048 -179.428
RightUpLeg  -6.03219 -15.812 -0.894478
RightLeg  0.636159 -1.13864 0.0666612
RightFoot  7.73864 0.0327864 0.000614946
RightToes  -27.3486 -0.126169 -0.232039
Spine  -2.47735 -0.244441 0.27263
Spine1  -4.97955 -0.406391 1.2172
HEad  -75.5586 -9.06184 8.98973
LeftShoulder1  -1.94126e-019 -3.10601e-018 -2.51263e-017
LeftArm  -5.1674 19.7472 -82.2326
LeftForeArm  32.5106 -24.0059 -3.74871
LeftHand  -0.432131 -1.78102 7.17653
RightShoulder  -4.96962e-017 0 -2.36833e-017
RightArm  -19.8337 -19.39 76.9422
RightForeArm  54.0387 17.6435 1.33319
RightHand  -0.313278 -1.32867 -8.87063
LeftUpLeg  -6.08378 6.59128 1.8075
LeftLeg  1.53742 13.3145 -0.494273
LeftFoot  7.31868 -0.103788 1.88458
LeftToes  -23.5172 1.9075e-006 4.29692e-008
3
root  -41.7378 34.9254 11.8372 -169.554 60.2255 -179.374
RightUpLeg  -6.22106 -15.7859 -0.835225
RightLeg  0.713465 -1.05265 0.0548687
RightFoot  7.73051 0.0320004 0.0118465
RightToes  -27.3766 -0.126169 -0.232039
Spine  -2.50912 -0.254269 0.26274
Spine1  -5.04533 -0.43096 1.19072
HEad  -75.6055 -8.98532 8.79409
LeftShoulder1  -1.94126e-019 -3.10601e-018 -2.51263e-017
LeftArm  -5.71486 20.339 -82.0759
LeftForeArm  32.5688 -22.5731 -3.55467
LeftHand  -0.462779 -1.73969 7.71446
RightShoulder  -4.96962e-017 0 -2.36833e-017
RightArm  -20.0538 -19.4065 76.6991
RightForeArm  54.4359 16.9241 1.28873
RightHand  -0.313768 -1.40168 -8.85098
LeftUpLeg  -6.25216 6.77722 1.80665
LeftLeg  1.65753 13.267 -0.464962
LeftFoot  7.26248 -0.102486 1.86433
LeftToes  -23.5748 1.9075e-006 4.29692e-008
4
root  -41.7445 34.9206 11.8453 -169.398 60.2969 -179.304
RightUpLeg  -6.4042 -15.7326 -0.767066
RightLeg  0.82578 -1.0364 0.0520182
RightFoot  7.70306 0.0318294 0.0142903
RightToes  -27.3792 -0.126169 -0.232039
Spine  -2.508 -0.25321 0.237425
Spine1  -5.04546 -0.432336 1.13182
HEad  -75.6169 -8.81844 9.11342
LeftShoulder1  -1.94126e-019 -3.10601e-018 -2.51263e-017
LeftArm  -6.60065 20.681 -81.9129
LeftForeArm  33.2039 -20.5872 -3.30323
LeftHand  -0.46595 -1.71949 7.78665
RightShoulder  -4.96962e-017 0 -2.36833e-017
RightArm  -20.923 -19.3482 76.4721
RightForeArm  55.222 16.0132 1.24288
RightHand  -0.308126 -1.47504 -9.0578
LeftUpLeg  -6.42884 6.81908 1.82577
LeftLeg  1.81102 13.3158 -0.431269
LeftFoot  7.24869 -0.10264 1.86672
LeftToes  -23.7318 1.9075e-006 4.29692e-008
5
root  -41.748 34.9134 11.853 -169.27 60.2834 -179.239
RightUpLeg  -6.56832 -15.7091 -0.703684
RightLeg  0.989407 -1.07675 0.050996
RightFoot  7.63133 0.0319056 0.0132019
RightToes  -27.3907 -0.126169 -0.232039
Spine  -2.50891 -0.251674 0.185563
Spine1  -5.03091 -0.436502 1.02053
HEad  -75.7259 -8.58529 9.86042
LeftShoulder1  -1.94126e-019 -3.10601e-018 -2.51263e-017
LeftArm  -7.72243 20.9448 -81.7419
LeftForeArm  33.9462 -18.3032 -3.01653
LeftHand  -0.465794 -1.51908 7.99429
RightShoulder  -4.96962e-017 0 -2.36833e-017
RightArm  -21.7276 -19.3786 76.2484
RightForeArm  55.8931 15.1642 1.22464
RightHand  -0.300918 -1.70697 -9.31587
LeftUpLeg  -6.61225 6.74361 1.86088
LeftLeg  2.01755 13.3845 -0.38563
LeftFoot  7.16532 -0.101891 1.85507
LeftToes  -23.714 1.9075e-006 4.29692e-008
6
root  -41.7516 34.9068 11.8602 -169.16 60.186 -179.191
RightUpLeg  -6.74178 -15.7735 -0.644109
RightLeg  1.19944 -1.10682 0.0484013
RightFoot  7.56983 0.032089 0.0105805
RightToes  -27.4992 -0.126169 -0.232039
Spine  -2.51087 -0.259592 0.124167
Spine1  -5.03767 -0.455437 0.884397
HEad  -75.7887 -8.32298 10.6411
LeftShoulder1  -1.94126e-019 -3.10601e-018 -2.51263e-017
LeftArm  -9.2451 21.1933 -81.5651
LeftForeArm  34.8948 -15.9098 -2.69991
LeftHand  -0.471758 -1.46134 8.1583
RightShoulder  -4.96962e-017 0 -2.36833e-017
RightArm  -22.773 -19.4342 76.0537
RightForeArm  56.7233 14.2154 1.21977
RightHand  -0.297583 -1.78746 -9.53753
LeftUpLeg  -6.82975 6.62708 1.8933
LeftLeg  2.27694 13.4173 -0.326364
LeftFoot  7.06726 -0.100579 1.83468
LeftToes  -23.594 1.9075e-006 4.29692e-008
7
root  -41.7549 34.8993 11.869 -169.094 60.0472 -179.163
RightUpLeg  -6.89195 -15.9108 -0.590856
RightLeg  1.42433 -1.10629 0.0440847
RightFoot  7.46344 0.0323167 0.00732749
RightToes  -27.4902 -0.126169 -0.232039
Spine  -2.51216 -0.272865 0.0730479
Spine1  -5.04681 -0.482353 0.780457
HEad  -75.6319 -7.99369 11.1848
LeftShoulder1  -1.94126e-019 -3.10601e-018 -2.51263e-017
LeftArm  -10.4688 21.5248 -81.3391
LeftForeArm  35.3077 -13.7694 -2.38016
LeftHand  -0.47104 -1.3388 8.2848
RightShoulder  -4.96962e-017 0 -2.36833e-017
RightArm  -23.5322 -19.6487 75.8394
RightForeArm  57.5169 13.7477 1.27593
RightHand  -0.296321 -1.90815 -9.67593
LeftUpLeg  -7.01596 6.77816 1.91592
LeftLeg  2.49683 13.1498 -0.269959
LeftFoot  7.02398 -0.0975963 1.7883
LeftToes  -23.8608 1.9075e-006 4.29692e-008
